HIERARCHY
ROOT Hips
{
  OFFSET 5.84602e-005 68.8428 3.50346
  CHANNELS 6 Xposition Yposition Zposition Zrotation Xrotation Yrotation
  JOINT Spine
  {
    OFFSET 0 8.597 -4.6522
    CHANNELS 3 Zrotation Xrotation Yrotation
    JOINT Spine1
    {
      OFFSET 0 7.8454 0.4098
      CHANNELS 3 Zrotation Xrotation Yrotation
      JOINT Spine2
      {
        OFFSET 0 9.7078 -2.1609
        CHANNELS 3 Zrotation Xrotation Yrotation
        JOINT Neck
        {
          OFFSET 0 21.8761 -0.4549
          CHANNELS 3 Zrotation Xrotation Yrotation
          JOINT Head
          {
            OFFSET 0 12.3537 3.3602
            CHANNELS 3 Zrotation Xrotation Yrotation
            End Site
            {
              OFFSET 0.0001 18.9506 0.5657
            }
          }
        }
        JOINT LeftShoulder
        {
          OFFSET 2.2086 21.1115 7.2329
          CHANNELS 3 Zrotation Xrotation Yrotation
          JOINT LeftArm
          {
            OFFSET 13.1193 3.0282 -4.8998
            CHANNELS 3 Zrotation Xrotation Yrotation
            JOINT LeftForeArm
            {
              OFFSET 27.4081 -0.0973053 -0.2375
              CHANNELS 3 Zrotation Xrotation Yrotation
              JOINT LeftHand
              {
                OFFSET 22.8641 0.0662994 -0.1369
                CHANNELS 3 Zrotation Xrotation Yrotation
                JOINT LeftHandIndex1
                {
                  OFFSET 8.8614 0.775009 2.4612
                  CHANNELS 3 Zrotation Xrotation Yrotation
                  JOINT LeftHandIndex2
                  {
                    OFFSET 3.3146 -0.808304 0.5841
                    CHANNELS 3 Zrotation Xrotation Yrotation
                    JOINT LeftHandIndex3
                    {
                      OFFSET 2.2628 -0.552002 0.3989
                      CHANNELS 3 Zrotation Xrotation Yrotation
                      End Site
                      {
                        OFFSET 1.6102 -0.4807 0.2612
                      }
                    }
                  }
                }
                JOINT LeftHandMiddle1
                {
                  OFFSET 8.9937 0.895004 0.2143
                  CHANNELS 3 Zrotation Xrotation Yrotation
                  JOINT LeftHandMiddle2
                  {
                    OFFSET 4.0984 0.0113983 -0.0242
                    CHANNELS 3 Zrotation Xrotation Yrotation
                    JOINT LeftHandMiddle3
                    {
                      OFFSET 2.2716 0.00689697 -0.0138001
                      CHANNELS 3 Zrotation Xrotation Yrotation
                      End Site
                      {
                        OFFSET 2.0404 -0.1441 0.0027
                      }
                    }
                  }
                }
                JOINT LeftHandRing1
                {
                  OFFSET 8.5234 0.597198 -2.0164
                  CHANNELS 3 Zrotation Xrotation Yrotation
                  JOINT LeftHandRing2
                  {
                    OFFSET 3.7188 -0.188293 -0.2328
                    CHANNELS 3 Zrotation Xrotation Yrotation
                    JOINT LeftHandRing3
                    {
                      OFFSET 2.1191 -0.106598 -0.1332
                      CHANNELS 3 Zrotation Xrotation Yrotation
                      End Site
                      {
                        OFFSET 1.8737 -0.2304 -0.0886
                      }
                    }
                  }
                }
                JOINT LeftHandPinky1
                {
                  OFFSET 7.9094 -0.601089 -3.4825
                  CHANNELS 3 Zrotation Xrotation Yrotation
                  JOINT LeftHandPinky2
                  {
                    OFFSET 2.2874 -0.477005 -0.6314
                    CHANNELS 3 Zrotation Xrotation Yrotation
                    JOINT LeftHandPinky3
                    {
                      OFFSET 1.6774 -0.349396 -0.4633
                      CHANNELS 3 Zrotation Xrotation Yrotation
                      End Site
                      {
                        OFFSET 1.4888 -0.4091 -0.3416
                      }
                    }
                  }
                }
                JOINT LeftHandThumb1
                {
                  OFFSET 1.833 -1.3875 1.3896
                  CHANNELS 3 Zrotation Xrotation Yrotation
                  JOINT LeftHandThumb2
                  {
                    OFFSET 3.4129 -1.121 2.5732
                    CHANNELS 3 Zrotation Xrotation Yrotation
                    JOINT LeftHandThumb3
                    {
                      OFFSET 2.2474 -0.804199 1.6192
                      CHANNELS 3 Zrotation Xrotation Yrotation
                      End Site
                      {
                        OFFSET 1.6527 -0.5689 1.1317
                      }
                    }
                  }
                }
              }
            }
          }
        }
        JOINT RightShoulder
        {
          OFFSET -2.2086 21.1115 7.2329
          CHANNELS 3 Zrotation Xrotation Yrotation
          JOINT RightArm
          {
            OFFSET -13.1216 3.0287 -4.9007
            CHANNELS 3 Zrotation Xrotation Yrotation
            JOINT RightForeArm
            {
              OFFSET -27.4081 -0.0973053 -0.2375
              CHANNELS 3 Zrotation Xrotation Yrotation
              JOINT RightHand
              {
                OFFSET -22.8641 0.0664063 -0.1369
                CHANNELS 3 Zrotation Xrotation Yrotation
                JOINT RightHandIndex1
                {
                  OFFSET -8.8614 0.774994 2.4612
                  CHANNELS 3 Zrotation Xrotation Yrotation
                  JOINT RightHandIndex2
                  {
                    OFFSET -3.3146 -0.808304 0.5841
                    CHANNELS 3 Zrotation Xrotation Yrotation
                    JOINT RightHandIndex3
                    {
                      OFFSET -2.2628 -0.552002 0.3989
                      CHANNELS 3 Zrotation Xrotation Yrotation
                      End Site
                      {
                        OFFSET -1.6102 -0.4807 0.2612
                      }
                    }
                  }
                }
                JOINT RightHandMiddle1
                {
                  OFFSET -8.9937 0.894989 0.2143
                  CHANNELS 3 Zrotation Xrotation Yrotation
                  JOINT RightHandMiddle2
                  {
                    OFFSET -4.0984 0.0113983 -0.0242
                    CHANNELS 3 Zrotation Xrotation Yrotation
                    JOINT RightHandMiddle3
                    {
                      OFFSET -2.2716 0.00691223 -0.0138001
                      CHANNELS 3 Zrotation Xrotation Yrotation
                      End Site
                      {
                        OFFSET -2.0404 -0.1441 0.0027
                      }
                    }
                  }
                }
                JOINT RightHandRing1
                {
                  OFFSET -8.5234 0.597198 -2.0164
                  CHANNELS 3 Zrotation Xrotation Yrotation
                  JOINT RightHandRing2
                  {
                    OFFSET -3.7188 -0.188309 -0.2328
                    CHANNELS 3 Zrotation Xrotation Yrotation
                    JOINT RightHandRing3
                    {
                      OFFSET -2.1191 -0.106598 -0.1332
                      CHANNELS 3 Zrotation Xrotation Yrotation
                      End Site
                      {
                        OFFSET -1.8737 -0.2304 -0.0886
                      }
                    }
                  }
                }
                JOINT RightHandPinky1
                {
                  OFFSET -7.9094 -0.601105 -3.4825
                  CHANNELS 3 Zrotation Xrotation Yrotation
                  JOINT RightHandPinky2
                  {
                    OFFSET -2.2874 -0.477005 -0.6314
                    CHANNELS 3 Zrotation Xrotation Yrotation
                    JOINT RightHandPinky3
                    {
                      OFFSET -1.6774 -0.349396 -0.4633
                      CHANNELS 3 Zrotation Xrotation Yrotation
                      End Site
                      {
                        OFFSET -1.4888 -0.4091 -0.3416
                      }
                    }
                  }
                }
                JOINT RightHandThumb1
                {
                  OFFSET -1.833 -1.38751 1.3896
                  CHANNELS 3 Zrotation Xrotation Yrotation
                  JOINT RightHandThumb2
                  {
                    OFFSET -3.41299 -1.12099 2.5732
                    CHANNELS 3 Zrotation Xrotation Yrotation
                    JOINT RightHandThumb3
                    {
                      OFFSET -2.24741 -0.804108 1.6192
                      CHANNELS 3 Zrotation Xrotation Yrotation
                      End Site
                      {
                        OFFSET -1.6527 -0.5689 1.1317
                      }
                    }
                  }
                }
              }
            }
          }
        }
      }
    }
  }
  JOINT RightUpLeg
  {
    OFFSET -9.1966 3.8861 -0.7581
    CHANNELS 3 Zrotation Xrotation Yrotation
    JOINT RightLeg
    {
      OFFSET -0.7359 -41.0265 0
      CHANNELS 3 Zrotation Xrotation Yrotation
      JOINT RightFoot
      {
        OFFSET 0 -40.2855 0
        CHANNELS 3 Zrotation Xrotation Yrotation
        JOINT RightToeBase
        {
          OFFSET 0 -5.6122 11.7359
          CHANNELS 3 Zrotation Xrotation Yrotation
          End Site
          {
            OFFSET 0 0 7.8731
          }
        }
      }
    }
  }
  JOINT LeftUpLeg
  {
    OFFSET 9.1965 3.8864 -0.7581
    CHANNELS 3 Zrotation Xrotation Yrotation
    JOINT LeftLeg
    {
      OFFSET 0.7359 -41.0268 0
      CHANNELS 3 Zrotation Xrotation Yrotation
      JOINT LeftFoot
      {
        OFFSET 0 -40.2855 0
        CHANNELS 3 Zrotation Xrotation Yrotation
        JOINT LeftToeBase
        {
          OFFSET 0 -5.6122 11.7359
          CHANNELS 3 Zrotation Xrotation Yrotation
          End Site
          {
            OFFSET 0 0 7.8731
          }
        }
      }
    }
  }
}
MOTION
Frames:	6
Frame Time:	0.0333333
5.84602e-005 68.8428 3.50346 0 0 -0 0 0 -0 0 0 -0 0 0 -0 0 0 -0 0 0 -0 0 0 -0 0 0 -0 0 0 -0 0 0 -0 0 0 -0 0 0 -0 0 0 -0 0 0 -0 -0.0146107 -8.87603e-005 -2.63497e-007 2.99804e-018 -2.42657e-020 -1.42182e-022 0 0 -0 -0.0187562 -0.001176 5.858e-005 5.06224e-018 3.88251e-019 1.21329e-020 0 0 -0 -0.012269 -0.00324817 0.000675346 -1.74678e-018 3.88251e-019 -0 0 0 -0 0 0 -0 0 0 -0 0 0 -0 0 0 -0 0 0 -0 0 0 -0 0 0 -0 0 0 -0 0 0 -0 0 0 -0 0.0149955 -9.10982e-005 2.64101e-007 -9.69331e-018 1.21329e-020 -4.7394e-023 0 0 -0 0.0189956 -0.00119102 -5.96516e-005 -5.41541e-019 0 2.42657e-020 0 0 -0 0.0122698 -0.00324857 -0.000673756 -2.00796e-019 0 -1.94126e-019 0 0 -0 0 0 -0 0 0 -0 3.39842 1.33031 -0.0637918 -5.65207e-008 0.834868 -0.000436188 -3.39935 -2.16518 -0.0642563 -8.89002e-024 -1.18485e-023 -1.48106e-024 -3.39844 1.35642 0.0640283 -3.18788e-007 0.782166 -0.000588827 3.39931 -2.13858 0.0634662 1.1399e-023 0 -0 
39.7289 68.4395 25.585 0 10.9996 -0 -0.244055 0.0634296 -0.163475 -0.487928 0.12755 -0.326678 -0.487928 0.127553 -0.326679 -0.000446086 0.463484 -0.000300228 1.15404e-007 0.305996 4.79016e-008 -20.2641 12.244 15.5451 -63.5888 -0.875104 4.05682 -6.95517 2.65623 0.15815 -4.40315 3.85787 -6.72078 1.76556e-031 -1.59028e-015 6.36111e-015 -3.97569e-016 -2.38542e-015 3.18055e-015 -3.97569e-016 -2.38542e-015 3.18055e-015 1.76556e-031 -1.59028e-015 6.36111e-015 -0.0146553 -8.77041e-005 -2.73543e-006 1.59028e-015 -7.95139e-016 -0 1.76556e-031 -1.59028e-015 6.36111e-015 -0.0187353 -0.00117572 6.26761e-005 -3.97569e-016 -2.38542e-015 -0 1.76556e-031 -1.59028e-015 6.36111e-015 -0.012254 -0.00324668 0.000678929 1.03368e-014 -3.97569e-015 -6.36111e-015 1.76556e-031 -1.59028e-015 6.36111e-015 -3.97569e-016 -2.38542e-015 3.18055e-015 -3.97569e-016 -2.38542e-015 3.18055e-015 25.6781 9.21024 -16.8287 58.6917 -0.424698 -4.24171 4.61687 2.64793 -0.160124 5.61296 3.71286 5.60933 1.76305e-007 -1.20062e-006 -1.15085e-006 3.5261e-007 -2.40125e-006 -2.3017e-006 1.76305e-007 -1.20062e-006 -1.15085e-006 1.76305e-007 -1.20062e-006 -1.15085e-006 0.0149791 -9.25084e-005 -3.78095e-006 1.76259e-007 -1.20077e-006 -1.15069e-006 1.76305e-007 -1.20062e-006 -1.15085e-006 0.0189726 -0.00118989 -6.03748e-005 1.76237e-007 -1.20081e-006 -1.15065e-006 1.76305e-007 -1.20062e-006 -1.15085e-006 0.0122195 -0.00323431 -0.000674539 1.76243e-007 -1.20074e-006 -1.15072e-006 1.76305e-007 -1.20062e-006 -1.15085e-006 3.5261e-007 -2.40125e-006 -2.3017e-006 1.76305e-007 -1.20062e-006 -1.15085e-006 1.47133 -10.9677 -10.1584 5.12684 0.767899 0.260934 3.55844 -5.3391 -18.1522 -1.69916e-006 -2.16963e-007 3.40494e-008 2.94403 -16.5599 -6.93285 -12.7535 10.5955 3.36967 -3.02043 -6.64236 18.4396 -1.98785e-016 -6.95746e-016 4.77083e-015 
39.7288 68.402 25.3978 0 12.051 -0 -0.2429 -0.168795 -0.164227 -0.486286 -0.33684 -0.329171 -0.486286 -0.336837 -0.329171 -3.45642e-005 0.923644 -4.18497e-006 -0.0550521 0.432173 0.0113784 -20.7082 12.5865 16.0771 -63.1636 -0.832822 4.09031 -6.76274 2.65481 0.158332 -4.57905 4.07149 -7.10513 -3.55363e-008 -6.66121e-007 1.73781e-006 -6.14867e-007 -1.73566e-006 3.21531e-006 -3.6043e-007 -1.78992e-006 5.0979e-007 -3.55363e-008 -6.66121e-007 1.73781e-006 -0.0145556 -9.33573e-005 3.10393e-006 -3.60401e-007 -1.78999e-006 5.09563e-007 -3.55363e-008 -6.66121e-007 1.73781e-006 -0.0187268 -0.00117986 6.22172e-005 -3.60389e-007 -1.79e-006 5.09501e-007 -3.55363e-008 -6.66121e-007 1.73781e-006 -0.0122814 -0.0032564 0.000683756 -3.60402e-007 -1.78997e-006 5.09607e-007 -3.55363e-008 -6.66121e-007 1.73781e-006 -6.14867e-007 -1.73566e-006 3.21531e-006 -3.6043e-007 -1.78992e-006 5.0979e-007 26.1233 9.54204 -17.3875 58.2221 -0.371931 -4.25953 4.42771 2.64185 -0.160234 5.83398 3.886 5.98453 1.7333e-007 -5.75435e-007 5.99916e-007 3.97569e-016 -1.59028e-015 -0 1.7333e-007 -5.75435e-007 5.99916e-007 1.7333e-007 -5.75435e-007 5.99916e-007 0.0150094 -9.33725e-005 -1.3556e-007 1.73342e-007 -5.75356e-007 5.99991e-007 1.7333e-007 -5.75435e-007 5.99916e-007 0.0189956 -0.00119112 -5.97792e-005 1.73351e-007 -5.75336e-007 6.00009e-007 1.7333e-007 -5.75435e-007 5.99916e-007 0.0122599 -0.00324681 -0.000676784 1.7336e-007 -5.75372e-007 5.99972e-007 1.7333e-007 -5.75435e-007 5.99916e-007 3.97569e-016 -1.59028e-015 -0 1.7333e-007 -5.75435e-007 5.99916e-007 1.48772 -12.0884 -10.1978 5.12687 0.791573 0.260527 3.55828 -5.34989 -18.1519 -3.97569e-016 0 -0 3.01291 -17.7947 -6.79958 -12.8896 10.7908 3.40525 -3.02086 -6.64075 18.4396 -5.01931e-015 9.93923e-016 -0 
39.7287 68.3671 25.2098 0 13.1039 -0 -0.241638 -0.401367 -0.164904 -0.484448 -0.802032 -0.331511 -0.484448 -0.802033 -0.331511 -5.91683e-005 1.38403 -1.98275e-005 -0.110143 0.558379 0.0228814 -21.1567 12.9253 16.6126 -62.7384 -0.790282 4.1235 -6.57024 2.65344 0.158515 -4.75364 4.28636 -7.48904 -1.19271e-015 1.59028e-015 -3.18055e-015 -4.41391e-032 7.95139e-016 3.18055e-015 3.97569e-016 1.59028e-015 -3.18055e-015 -1.19271e-015 1.59028e-015 -3.18055e-015 -0.0145627 -8.69924e-005 1.48703e-006 -1.19271e-015 7.95139e-016 -1.27222e-014 -1.19271e-015 1.59028e-015 -3.18055e-015 -0.0187103 -0.00117095 6.18708e-005 -7.95139e-016 -7.95139e-016 -0 -1.19271e-015 1.59028e-015 -3.18055e-015 -0.0121761 -0.00322334 0.000673764 -1.59028e-015 -7.95139e-016 6.36111e-015 -1.19271e-015 1.59028e-015 -3.18055e-015 -4.41391e-032 7.95139e-016 3.18055e-015 3.97569e-016 1.59028e-015 -3.18055e-015 26.5721 9.86968 -17.9503 57.7523 -0.319009 -4.27691 4.23852 2.63597 -0.160341 6.05401 4.06065 6.35924 -3.97569e-016 -1.59028e-015 -6.36111e-015 1.0358e-008 1.14146e-006 7.9235e-007 1.19271e-015 -3.18055e-015 -9.54166e-015 -3.97569e-016 -1.59028e-015 -6.36111e-015 0.0149596 -9.27159e-005 -1.77323e-006 -1.59028e-015 -3.18055e-015 -6.36111e-015 -3.97569e-016 -1.59028e-015 -6.36111e-015 0.0189682 -0.00118904 -6.14685e-005 3.97569e-016 -1.59028e-015 -0 -3.97569e-016 -1.59028e-015 -6.36111e-015 0.0122475 -0.00324182 -0.000672574 -1.59028e-015 -1.59028e-015 -3.18055e-015 -3.97569e-016 -1.59028e-015 -6.36111e-015 1.0358e-008 1.14146e-006 7.9235e-007 1.19271e-015 -3.18055e-015 -9.54166e-015 1.50985 -13.1763 -10.2345 5.12682 0.744571 0.260926 3.55819 -5.32501 -18.1527 -1.96419e-006 8.09643e-007 -6.12111e-008 3.08525 -19.0318 -6.66359 -13.0257 10.9862 3.44132 -3.02139 -6.63921 18.4396 -1.33572e-008 -8.80625e-008 8.4306e-007 
39.7287 68.3347 25.0209 0 14.158 -0 -0.240372 -0.63432 -0.165573 -0.482621 -1.26794 -0.333837 -0.482621 -1.26794 -0.333837 -2.71572e-005 1.84494 1.37922e-006 -0.165276 0.68461 0.0345087 -21.6094 13.2603 17.152 -62.3132 -0.747506 4.15638 -6.3778 2.65216 0.158716 -4.92682 4.50243 -7.87251 -1.59028e-015 -7.95139e-016 -3.18055e-015 -1.98785e-015 -7.95139e-016 -0 -1.59028e-015 7.95139e-016 -0 -1.59028e-015 -7.95139e-016 -3.18055e-015 -0.0146114 -9.07525e-005 2.74106e-006 1.98785e-015 7.95139e-016 -0 -1.59028e-015 -7.95139e-016 -3.18055e-015 -0.0187057 -0.00117072 6.1176e-005 7.95139e-016 0 -9.54166e-015 -1.59028e-015 -7.95139e-016 -3.18055e-015 -0.0121886 -0.00322937 0.000674905 -7.95139e-016 7.95139e-016 3.18055e-015 -1.59028e-015 -7.95139e-016 -3.18055e-015 -1.98785e-015 -7.95139e-016 -0 -1.59028e-015 7.95139e-016 -0 27.025 10.1932 -18.5164 57.2825 -0.265919 -4.29387 4.04934 2.6303 -0.160443 6.27299 4.23675 6.73344 1.75419e-007 -5.75397e-007 5.99172e-007 1.75419e-007 -5.75397e-007 5.99172e-007 1.75419e-007 -5.75397e-007 5.99172e-007 1.75419e-007 -5.75397e-007 5.99172e-007 0.0150287 -9.03332e-005 -2.62141e-006 1.75431e-007 -5.75318e-007 5.99247e-007 1.75419e-007 -5.75397e-007 5.99172e-007 0.0190366 -0.00119188 -6.02971e-005 1.7544e-007 -5.75298e-007 5.99266e-007 1.75419e-007 -5.75397e-007 5.99172e-007 0.0122617 -0.00324461 -0.000671305 1.75449e-007 -5.75334e-007 5.99228e-007 1.75419e-007 -5.75397e-007 5.99172e-007 1.75419e-007 -5.75397e-007 5.99172e-007 1.75419e-007 -5.75397e-007 5.99172e-007 1.52317 -14.3096 -10.2744 5.12687 0.787626 0.260325 3.55796 -5.34557 -18.152 2.46811e-006 6.38376e-007 -8.38297e-008 3.16118 -20.2709 -6.52474 -13.1618 11.1817 3.47788 -3.02199 -6.63782 18.4396 4.43538e-015 7.45443e-016 3.18055e-015 
39.7286 68.305 24.8314 0 15.2132 -0 -0.239092 -0.867582 -0.166227 -0.480783 -1.73446 -0.336132 -0.480783 -1.73446 -0.336132 2.66121e-005 2.30644 2.10199e-005 -0.220449 0.810853 0.0462609 -22.0661 13.5913 17.695 -61.8879 -0.704465 4.18894 -6.18533 2.65094 0.158877 -5.09867 4.7197 -8.25551 -3.65367e-007 -1.78807e-006 5.11269e-007 -5.65961e-007 -3.01402e-006 1.63551e-006 -4.01186e-007 -2.4519e-006 2.24849e-006 -3.65367e-007 -1.78807e-006 5.11269e-007 -0.0145902 -9.07897e-005 2.24148e-006 -4.01101e-007 -2.45219e-006 2.24818e-006 -3.65367e-007 -1.78807e-006 5.11269e-007 -0.0187619 -0.00117423 6.1673e-005 -4.01057e-007 -2.45226e-006 2.24809e-006 -3.65367e-007 -1.78807e-006 5.11269e-007 -0.0123115 -0.0032642 0.000675175 -4.01066e-007 -2.45212e-006 2.24823e-006 -3.65367e-007 -1.78807e-006 5.11269e-007 -5.65961e-007 -3.01402e-006 1.63551e-006 -4.01186e-007 -2.4519e-006 2.24849e-006 27.4817 10.5126 -19.0861 56.8126 -0.212702 -4.3104 3.86012 2.62484 -0.160515 6.49088 4.41432 7.10714 4.50484e-009 -6.22301e-007 -1.74952e-006 1.78568e-007 -2.32989e-006 -1.91569e-006 4.5048e-009 -6.22301e-007 -1.74952e-006 4.50484e-009 -6.22301e-007 -1.74952e-006 0.0150087 -8.95548e-005 1.0033e-006 1.84596e-007 -6.54711e-008 -3.85691e-007 4.50484e-009 -6.22301e-007 -1.74952e-006 0.0189894 -0.00119158 -6.45579e-005 4.4135e-009 -6.22586e-007 -1.74942e-006 4.50484e-009 -6.22301e-007 -1.74952e-006 0.012239 -0.0032408 -0.000674161 4.41168e-009 -6.22475e-007 -1.74945e-006 4.50484e-009 -6.22301e-007 -1.74952e-006 1.78568e-007 -2.32989e-006 -1.91569e-006 4.5048e-009 -6.22301e-007 -1.74952e-006 1.54254 -15.4084 -10.3113 5.12683 0.75724 0.260519 3.55783 -5.32907 -18.1526 2.38542e-015 0 -0 3.24087 -21.5112 -6.38289 -13.2979 11.3765 3.51485 -3.02269 -6.63607 18.4396 -2.54756e-008 -2.10721e-007 -2.22203e-008 
